<svg xmlns="http://www.w3.org/2000/svg" xmlns:xlink="http://www.w3.org/1999/xlink" width="96" height="96" viewBox="0 0 96 96">
  <defs>
    <style>
      .cls-1 {
      clip-path: url(#clip-ic_eventos);
      }

      .cls-2 {
      fill: #b8c7ce;
      }
    </style>
    <clipPath id="clip-ic_eventos">
      <rect width="96" height="96"/>
    </clipPath>
  </defs>
  <g id="ic_eventos" class="cls-1">
    <g id="Agrupar_1023" data-name="Agrupar 1023" transform="translate(-319 -824)">
      <g id="users-group" transform="translate(319 828)">
        <path id="Caminho_426" data-name="Caminho 426" class="cls-2" d="M26.348,34.666A12.306,12.306,0,1,1,38.654,46.971,12.306,12.306,0,0,1,26.348,34.666ZM44.568,55.355a13.319,13.319,0,0,1,2.53-7.21,15.7,15.7,0,0,0-3.223-.334H33.435a15.772,15.772,0,0,0-3.213.33A13.35,13.35,0,0,1,32.761,55.9a13.433,13.433,0,0,1,11.807-.548Zm2.083,1.1A14.055,14.055,0,0,1,53.191,66.9,11.333,11.333,0,1,0,46.651,56.46ZM39.223,79.675a11.338,11.338,0,1,0-11.34-11.338A11.339,11.339,0,0,0,39.223,79.675Zm4.809.772h-9.62A14.535,14.535,0,0,0,19.9,94.965v11.766l.031.184.81.252a66.12,66.12,0,0,0,19.739,3.184c10.668,0,16.854-3.042,17.235-3.237l.758-.383h.08V94.965A14.532,14.532,0,0,0,44.033,80.447Zm18.76-11.7H53.245a13.975,13.975,0,0,1-4.312,9.733A17.25,17.25,0,0,1,61.254,94.983v3.625c9.425-.347,14.857-3.017,15.215-3.2l.758-.385h.08V83.258A14.531,14.531,0,0,0,62.792,68.743Zm2.552-23.691a14.052,14.052,0,0,1,6.538,10.436,11.333,11.333,0,1,0-6.538-10.436ZM81.484,57.334H71.938a13.974,13.974,0,0,1-4.312,9.733A17.249,17.249,0,0,1,79.947,83.574V87.2c9.424-.346,14.857-3.016,15.215-3.2l.757-.384H96V71.849A14.532,14.532,0,0,0,81.484,57.334ZM19.329,67.969a11.263,11.263,0,0,0,6.03-1.751,14.036,14.036,0,0,1,5.275-8.95c.012-.213.031-.423.031-.638A11.337,11.337,0,1,0,19.329,67.969ZM29.512,78.476A13.986,13.986,0,0,1,25.2,68.8c-.353-.026-.7-.053-1.064-.053H14.518A14.533,14.533,0,0,0,0,83.259V95.026l.03.183.811.253a67.779,67.779,0,0,0,16.349,3.072V94.982A17.248,17.248,0,0,1,29.512,78.476Z" transform="translate(0 -22.36)"/>
      </g>
    </g>
  </g>
</svg>
