<svg xmlns="http://www.w3.org/2000/svg" xmlns:xlink="http://www.w3.org/1999/xlink" width="96" height="96" viewBox="0 0 96 96">
  <defs>
    <style>
      .cls-1 {
      clip-path: url(#clip-ic_usuariosdosistema);
      }

      .cls-2 {
      fill: #b8c7ce;
      }
    </style>
    <clipPath id="clip-ic_usuariosdosistema">
      <rect width="96" height="96"/>
    </clipPath>
  </defs>
  <g id="ic_usuariosdosistema" class="cls-1">
    <g id="multiple-11">
      <path id="Caminho_546" data-name="Caminho 546" class="cls-2" d="M21,24h0A12,12,0,0,1,9,12H9A12,12,0,0,1,21,0h0A12,12,0,0,1,33,12h0A12,12,0,0,1,21,24Z" transform="translate(27)"/>
      <path id="Caminho_547" data-name="Caminho 547" class="cls-2" d="M16,52V20A19.793,19.793,0,0,1,20.1,8H8a8,8,0,0,0-8,8V40H8V60a4,4,0,0,0,4,4h8a4,4,0,0,0,4-4V52Z" transform="translate(0 24)"/>
      <path id="Caminho_548" data-name="Caminho 548" class="cls-2" d="M38,72H22a4,4,0,0,1-4-4V44H6V20A12,12,0,0,1,18,8H42A12,12,0,0,1,54,20V44H42V68A4,4,0,0,1,38,72Z" transform="translate(18 24)"/>
      <path id="Caminho_549" data-name="Caminho 549" class="cls-2" d="M10,19h0a8,8,0,0,1-8-8H2a8,8,0,0,1,8-8h0a8,8,0,0,1,8,8h0A8,8,0,0,1,10,19Z" transform="translate(6 9)"/>
      <path id="Caminho_550" data-name="Caminho 550" class="cls-2" d="M26,52V20A19.793,19.793,0,0,0,21.9,8H34a8,8,0,0,1,8,8V40H34V60a4,4,0,0,1-4,4H22a4,4,0,0,1-4-4V52Z" transform="translate(54 24)"/>
      <path id="Caminho_551" data-name="Caminho 551" class="cls-2" d="M26,19h0a8,8,0,0,0,8-8h0a8,8,0,0,0-8-8h0a8,8,0,0,0-8,8h0A8,8,0,0,0,26,19Z" transform="translate(54 9)"/>
    </g>
  </g>
</svg>
